<svg width="344" height="76" viewBox="0 0 344 76" fill="none" xmlns="http://www.w3.org/2000/svg">
<path d="M28.9972 75H0.734375V1.54545H28.7102C36.2661 1.54545 42.7938 3.01598 48.2933 5.95703C53.8168 8.87417 58.0729 13.0825 61.0618 18.582C64.0746 24.0576 65.581 30.6212 65.581 38.2727C65.581 45.9242 64.0865 52.4998 61.0977 57.9993C58.1088 63.4749 53.8765 67.6832 48.4009 70.6243C42.9253 73.5414 36.4574 75 28.9972 75ZM20.6761 58.071H28.2798C31.9143 58.071 35.0108 57.4852 37.5692 56.3136C40.1516 55.1419 42.1123 53.1214 43.4513 50.2521C44.8143 47.3828 45.4957 43.3897 45.4957 38.2727C45.4957 33.1558 44.8023 29.1626 43.4155 26.2933C42.0526 23.424 40.044 21.4035 37.3899 20.2319C34.7597 19.0602 31.5317 18.4744 27.706 18.4744H20.6761V58.071ZM145.967 38.2727C145.967 46.4503 144.377 53.3486 141.196 58.9677C138.016 64.5629 133.724 68.8071 128.32 71.7003C122.917 74.5696 116.891 76.0043 110.244 76.0043C103.549 76.0043 97.4991 74.5576 92.0953 71.6644C86.7153 68.7473 82.4352 64.4911 79.2551 58.896C76.0988 53.2769 74.5207 46.4025 74.5207 38.2727C74.5207 30.0952 76.0988 23.2088 79.2551 17.6136C82.4352 11.9946 86.7153 7.75035 92.0953 4.88103C97.4991 1.98781 103.549 0.54119 110.244 0.54119C116.891 0.54119 122.917 1.98781 128.32 4.88103C133.724 7.75035 138.016 11.9946 141.196 17.6136C144.377 23.2088 145.967 30.0952 145.967 38.2727ZM125.451 38.2727C125.451 33.8731 124.865 30.1669 123.694 27.1541C122.546 24.1174 120.836 21.822 118.565 20.2678C116.317 18.6896 113.543 17.9006 110.244 17.9006C106.944 17.9006 104.158 18.6896 101.887 20.2678C99.6392 21.822 97.9295 24.1174 96.7579 27.1541C95.6102 30.1669 95.0363 33.8731 95.0363 38.2727C95.0363 42.6723 95.6102 46.3905 96.7579 49.4272C97.9295 52.44 99.6392 54.7354 101.887 56.3136C104.158 57.8678 106.944 58.6449 110.244 58.6449C113.543 58.6449 116.317 57.8678 118.565 56.3136C120.836 54.7354 122.546 52.44 123.694 49.4272C124.865 46.3905 125.451 42.6723 125.451 38.2727ZM155.193 75V1.54545H206.841V17.6136H175.135V30.2386H203.685V46.3068H175.135V75H155.193ZM214.176 75V1.54545H265.824V17.6136H234.118V30.2386H262.667V46.3068H234.118V75H214.176ZM270.145 1.54545H292.383L306.729 31.3864H307.303L321.65 1.54545H343.887L316.915 51.902V75H297.117V51.902L270.145 1.54545Z" fill="white"/>
</svg>
